<?xml version="1.0" encoding="UTF-8"?>
<svg version="1.1" xmlns="http://www.w3.org/2000/svg" width="256" height="256">
<path d="M0 0 C1.67852554 -0.01925285 1.67852554 -0.01925285 3.39096069 -0.03889465 C5.20958115 -0.04997505 5.20958115 -0.04997505 7.06494141 -0.0612793 C8.31723541 -0.06935104 9.56952942 -0.07742279 10.85977173 -0.08573914 C13.51788022 -0.09958657 16.1758645 -0.11059851 18.83398438 -0.11816406 C21.53799333 -0.12697217 24.24147968 -0.14772011 26.9453125 -0.1796875 C30.86034492 -0.22264391 34.77470166 -0.23857709 38.68994141 -0.2487793 C39.88211273 -0.26628738 41.07428406 -0.28379547 42.30258179 -0.30183411 C58.21021001 -0.26138449 72.55167859 5.55565444 84.11962891 16.49731445 C95.48886055 29.07681914 101.83605334 44.80834843 101.66650391 61.81274414 C100.79086702 78.37459489 94.27877956 92.58089628 82.54150391 104.17700195 C81.91501953 104.82540039 81.28853516 105.47379883 80.64306641 106.1418457 C66.11862913 120.14536435 46.46051686 120.66049566 27.54736328 120.51318359 C24.28474425 120.48945279 21.02293828 120.492658 17.76025391 120.49926758 C15.66129076 120.49369343 13.562331 120.48658521 11.46337891 120.4777832 C10.01931671 120.47915031 10.01931671 120.47915031 8.54608154 120.48054504 C1.54920193 120.40792144 -5.37653615 120.14421043 -11.39599609 116.30200195 C-14.5370166 113.06579901 -15.70151109 110.41166311 -15.74610901 105.91546631 C-15.75897446 105.07169937 -15.7718399 104.22793243 -15.78509521 103.3585968 C-15.78890198 102.44112167 -15.79270874 101.52364655 -15.79663086 100.57836914 C-15.80816696 99.60552475 -15.81970306 98.63268036 -15.83158875 97.63035583 C-15.86590203 94.41151322 -15.88439925 91.19286233 -15.89990234 87.97387695 C-15.90680525 86.87324165 -15.91370815 85.77260635 -15.92082024 84.63861847 C-15.95665729 78.8133581 -15.98019573 72.98819463 -15.99389648 67.1628418 C-16.01044242 61.15240322 -16.06886523 55.14314155 -16.13704014 49.1330986 C-16.18186299 44.50558769 -16.19539383 39.87835788 -16.20051384 35.2506485 C-16.2084003 33.0354816 -16.2280238 30.82032349 -16.25973701 28.60536957 C-16.30125934 25.50039207 -16.29833212 22.39837397 -16.28491211 19.29321289 C-16.30693695 18.38383469 -16.32896179 17.47445648 -16.35165405 16.53752136 C-16.26051241 10.30955834 -14.52905837 7.17097653 -10.25366116 2.66901016 C-7.0354788 -0.0057046 -4.01742424 0.04017137 0 0 Z " fill="#FDFDFE" transform="translate(91.45849609375,59.822998046875)"/>
<path d="M0 0 C0.33 0 0.66 0 1 0 C1.5478381 16.43514301 -3.10124328 30.17563993 -13.84765625 42.7578125 C-25.12612316 54.50706841 -39.71121957 61.82519604 -56.11645508 62.38818359 C-58.2507279 62.40763494 -60.38520382 62.41048969 -62.51953125 62.3984375 C-64.23374519 62.40274277 -64.23374519 62.40274277 -65.98258972 62.40713501 C-68.37666322 62.409161 -70.77075384 62.40373479 -73.16479492 62.39111328 C-76.82052496 62.37496455 -80.47516201 62.3910511 -84.13085938 62.41015625 C-86.46875242 62.40817501 -88.8066448 62.40433381 -91.14453125 62.3984375 C-92.2300679 62.40451019 -93.31560455 62.41058289 -94.43403625 62.4168396 C-100.39075054 62.36171392 -104.77359517 61.9495769 -110 59 C-112.4375 56.3125 -112.4375 56.3125 -114 54 C-110.91725221 52.9724174 -108.90529954 52.90185376 -105.6809082 52.94995117 C-104.591595 52.96293747 -103.5022818 52.97592377 -102.37995911 52.98930359 C-101.19883041 53.00701309 -100.01770172 53.0247226 -98.80078125 53.04296875 C-96.28581544 53.0653871 -93.77084087 53.08683915 -91.25585938 53.10742188 C-87.3020842 53.14426359 -83.34876106 53.18695083 -79.39526367 53.24682617 C-56.5222329 53.5769405 -36.8566648 53.04475749 -19.3515625 36.484375 C-10.22805793 26.84558944 -4.40907773 16.29143036 -1.578125 3.37109375 C-1 1 -1 1 0 0 Z " fill="#DCE7FA" transform="translate(196,131)"/>
<path d="M0 0 C0.33 0 0.66 0 1 0 C1.44617005 13.38510157 -0.78006459 27.19740314 -10.2265625 37.40625 C-10.81179687 37.9321875 -11.39703125 38.458125 -12 39 C-11.67 37.35 -11.34 35.7 -11 34 C-10.34 34 -9.68 34 -9 34 C-9.474375 32.948125 -9.94875 31.89625 -10.4375 30.8125 C-11.62306333 26.20829173 -10.12671674 23.77325128 -7.8125 19.75 C-7.15636719 18.6465625 -6.50023437 17.543125 -5.82421875 16.40625 C-3.53360973 12.12913851 -2.48479425 7.98976461 -1.5078125 3.265625 C-1 1 -1 1 0 0 Z " fill="#AFC4F6" transform="translate(196,131)"/>
<path d="M0 0 C0.66 0.99 1.32 1.98 2 3 C1.67 3.33 1.34 3.66 1 4 C0.87463144 7.04329187 0.81387557 10.06497373 0.79467773 13.10961914 C0.78477814 14.06561508 0.77487854 15.02161102 0.76467896 16.00657654 C0.73296148 19.18274414 0.70826619 22.35892673 0.68359375 25.53515625 C0.66303306 27.73091533 0.64203684 29.92667036 0.62062073 32.12242126 C0.56530861 37.91416158 0.51593978 43.70593814 0.46777344 49.4977417 C0.41762497 55.40282434 0.36190425 61.30785404 0.30664062 67.21289062 C0.19894733 78.80854858 0.09752733 90.4042524 0 102 C-0.33 102 -0.66 102 -1 102 C-1.0231209 88.84850976 -1.04091379 75.69702431 -1.05181217 62.54551792 C-1.05704156 56.43943631 -1.0641402 50.33336856 -1.07543945 44.22729492 C-1.08626637 38.33994853 -1.09227642 32.45261551 -1.09487724 26.56525993 C-1.09673185 24.31367723 -1.10035313 22.06209531 -1.10573006 19.81051826 C-1.11293789 16.66866573 -1.11399105 13.52686917 -1.11352539 10.38500977 C-1.11712067 9.44418045 -1.12071594 8.50335114 -1.12442017 7.53401184 C-1.11405216 1.11405216 -1.11405216 1.11405216 0 0 Z " fill="#DEF1FE" transform="translate(77,68)"/>
<path d="M0 0 C-7.11032914 4.74021942 -16.20871629 4.28080082 -24.4765625 4.1953125 C-25.52782318 4.1924826 -26.57908386 4.18965271 -27.66220093 4.18673706 C-30.98325524 4.17564143 -34.30402873 4.15055706 -37.625 4.125 C-39.89192316 4.11495646 -42.15885059 4.10583303 -44.42578125 4.09765625 C-49.95061485 4.07573701 -55.47528735 4.04236699 -61 4 C-61 3.67 -61 3.34 -61 3 C-29.75978884 0.78705362 -29.75978884 0.78705362 -16.98046875 0.99609375 C-11.26158949 1.003589 -5.7338902 -0.14334725 0 0 Z " fill="#ABC1EE" transform="translate(153,176)"/>
<path d="M0 0 C1.70273323 -0.00956978 1.70273323 -0.00956978 3.43986511 -0.01933289 C4.66796402 -0.02044571 5.89606293 -0.02155853 7.16137695 -0.02270508 C9.05760551 -0.02769768 9.05760551 -0.02769768 10.99214172 -0.03279114 C13.67122915 -0.03785948 16.35021518 -0.04063151 19.02929688 -0.04003906 C22.44420463 -0.03993784 25.85890258 -0.05354962 29.2737608 -0.07081127 C32.54879141 -0.08468547 35.82382097 -0.08402243 39.09887695 -0.08520508 C40.92584358 -0.09598335 40.92584358 -0.09598335 42.78971863 -0.10697937 C49.04083844 -0.09026888 54.48283182 0.283153 60.4621582 2.14526367 C60.4621582 2.47526367 60.4621582 2.80526367 60.4621582 3.14526367 C59.17051758 3.07307617 57.87887695 3.00088867 56.5480957 2.92651367 C43.18210647 2.24511981 29.84286066 2.03436313 16.4621582 2.02026367 C15.62996765 2.01776611 14.7977771 2.01526855 13.94036865 2.01269531 C11.53092379 2.00675765 9.12160475 2.00831345 6.7121582 2.01245117 C5.99830963 2.01046722 5.28446106 2.00848328 4.54898071 2.00643921 C-0.22285949 2.02816487 -4.81182973 2.47835025 -9.5378418 3.14526367 C-7.63271305 -0.66499382 -3.78808333 0.01444559 0 0 Z " fill="#D4E5FD" transform="translate(91.537841796875,59.854736328125)"/>
<path d="M0 0 C1.80591186 0.45309616 3.59067698 0.98953836 5.3671875 1.546875 C5.3671875 1.876875 5.3671875 2.206875 5.3671875 2.546875 C-2.5528125 2.216875 -10.4728125 1.886875 -18.6328125 1.546875 C-13.34186275 -1.98042484 -6.13286786 -1.05550841 0 0 Z " fill="#B8CAF6" transform="translate(146.6328125,60.453125)"/>
<path d="M0 0 C0.33 1.32 0.66 2.64 1 4 C1.66 4 2.32 4 3 4 C3 3.34 3 2.68 3 2 C3.99 1.67 4.98 1.34 6 1 C4.58832253 6.26170694 2.25149768 9.72171358 -1 14 C-1.33 12.68 -1.66 11.36 -2 10 C-1.01 9.67 -0.02 9.34 1 9 C0.84402344 8.43410156 0.68804687 7.86820313 0.52734375 7.28515625 C0.33269531 6.55167969 0.13804687 5.81820312 -0.0625 5.0625 C-0.35833984 3.96615234 -0.35833984 3.96615234 -0.66015625 2.84765625 C-0.77230469 2.23792969 -0.88445312 1.62820312 -1 1 C-0.67 0.67 -0.34 0.34 0 0 Z " fill="#B9CFF5" transform="translate(186,156)"/>
<path d="M0 0 C0.99 0.33 1.98 0.66 3 1 C-4.11389522 9.6309795 -4.11389522 9.6309795 -9 12 C-9 10.35 -9 8.7 -9 7 C-7.68 7.33 -6.36 7.66 -5 8 C-5 7.01 -5 6.02 -5 5 C-4.34 5 -3.68 5 -3 5 C-3 4.34 -3 3.68 -3 3 C-2.01 3 -1.02 3 0 3 C0 2.01 0 1.02 0 0 Z " fill="#B4CEF4" transform="translate(181,170)"/>
<path d="M0 0 C0.33 0 0.66 0 1 0 C1.0272415 1.41655793 1.04650467 2.83327045 1.0625 4.25 C1.07410156 5.03890625 1.08570313 5.8278125 1.09765625 6.640625 C1.00002622 8.99936653 0.89346622 10.81077387 0 13 C-2.0625 14.25 -2.0625 14.25 -4 15 C-3.5253725 12.6865641 -3.04517721 10.37426981 -2.5625 8.0625 C-2.29566406 6.77472656 -2.02882812 5.48695313 -1.75390625 4.16015625 C-1 1 -1 1 0 0 Z " fill="#A8C6FC" transform="translate(196,131)"/>
<path d="M0 0 C4.75 0.75 4.75 0.75 7 3 C6.67 3.99 6.34 4.98 6 6 C7.32 5.67 8.64 5.34 10 5 C10.33 5.99 10.66 6.98 11 8 C8.00309792 7.86060921 5.77158295 7.69781403 3.48828125 5.6328125 C0 1.45487106 0 1.45487106 0 0 Z " fill="#BFD6F8" transform="translate(82,184)"/>
<path d="M0 0 C0.66 0.99 1.32 1.98 2 3 C1.67 3.33 1.34 3.66 1 4 C0.84235595 5.77869726 0.74899323 7.56318476 0.68359375 9.34765625 C0.64169922 10.42724609 0.59980469 11.50683594 0.55664062 12.61914062 C0.51732422 13.75544922 0.47800781 14.89175781 0.4375 16.0625 C0.39431641 17.20267578 0.35113281 18.34285156 0.30664062 19.51757812 C0.20017161 22.34492195 0.09815793 25.17235738 0 28 C-0.33 28 -0.66 28 -1 28 C-1.02886338 23.52084672 -1.04675187 19.04171709 -1.0625 14.5625 C-1.07087891 13.28310547 -1.07925781 12.00371094 -1.08789062 10.68554688 C-1.09111328 9.47060547 -1.09433594 8.25566406 -1.09765625 7.00390625 C-1.10289307 5.87799072 -1.10812988 4.7520752 -1.11352539 3.59204102 C-1 1 -1 1 0 0 Z " fill="#C3D7FD" transform="translate(77,68)"/>
<path d="M0 0 C0.66 0 1.32 0 2 0 C1.32902328 4.19360449 -0.8558394 7.40334352 -3 11 C-3.66 9.68 -4.32 8.36 -5 7 C-3.625 5 -3.625 5 -2 3 C-1.34 3 -0.68 3 0 3 C0 2.01 0 1.02 0 0 Z " fill="#C7D9F5" transform="translate(185,144)"/>
<path d="M0 0 C2.97 0.495 2.97 0.495 6 1 C2.24532309 4.05936637 -1.08113061 6 -6 6 C-6 5.34 -6 4.68 -6 4 C-4.35 4 -2.7 4 -1 4 C-0.67 2.68 -0.34 1.36 0 0 Z " fill="#ADC2F6" transform="translate(161,184)"/>
<path d="M0 0 C0.66 0.33 1.32 0.66 2 1 C1.67 2.32 1.34 3.64 1 5 C0.34 5 -0.32 5 -1 5 C-1 5.66 -1 6.32 -1 7 C-1.66 7 -2.32 7 -3 7 C-3 5.02 -3 3.04 -3 1 C-2.01 0.67 -1.02 0.34 0 0 Z " fill="#EEF5FD" transform="translate(190,153)"/>
<path d="M0 0 C4.81033104 2.54664585 8.32442148 4.99027798 12 9 C9.5625 8.625 9.5625 8.625 7 8 C6.67 7.34 6.34 6.68 6 6 C3.98330173 4.86649466 3.98330173 4.86649466 2 4 C2 3.34 2 2.68 2 2 C1.34 2 0.68 2 0 2 C0 1.34 0 0.68 0 0 Z " fill="#A3BCF2" transform="translate(162,67)"/>
<path d="M0 0 C0 2.64 0 5.28 0 8 C-0.45375 7.505 -0.9075 7.01 -1.375 6.5 C-2.87635519 4.77390663 -2.87635519 4.77390663 -5 5 C-4.625 3.0625 -4.625 3.0625 -4 1 C-2 0 -2 0 0 0 Z " fill="#CADCF8" transform="translate(193,149)"/>
</svg>
