<svg width="59" height="14" viewBox="0 0 59 14" fill="none" xmlns="http://www.w3.org/2000/svg">
<path d="M9.16546 7.88714C9.54925 7.88714 9.86037 8.19826 9.86037 8.58205V8.84499C9.86037 9.37399 9.43153 9.80284 8.90252 9.80284H8.80861C7.85702 9.80284 7.18715 9.43973 6.799 8.71352C6.17295 9.6025 5.22762 10.047 3.963 10.047C3.09384 10.047 2.02852 10.6735 2.02852 11.5426V12.5449C2.02852 13.1051 1.57444 13.5591 1.01432 13.5591C0.454194 13.5591 0.00012207 13.1051 0.00012207 12.5449V1.42632C0.00012207 0.866198 0.454194 0.412127 1.01432 0.412127C1.57444 0.412127 2.02852 0.866198 2.02852 1.42632V5.97143C2.02852 6.66008 2.21633 7.19848 2.59196 7.58663C2.96759 7.96226 3.47469 8.15007 4.11325 8.15007C4.83947 8.15007 5.42169 7.93096 5.85993 7.49272C6.29816 7.04197 6.51728 6.35332 6.51728 5.42677V1.42632C6.51728 0.866199 6.97135 0.412127 7.53147 0.412127C8.0916 0.412127 8.54567 0.866198 8.54567 1.42632V7.26735C8.54567 7.45516 8.60201 7.60541 8.7147 7.7181C8.82739 7.83079 8.97764 7.88714 9.16546 7.88714Z" fill="white"/>
<path d="M13.8098 5.80711C13.8098 6.8729 14.6737 7.73688 15.7395 7.73688H18.1295C18.7 7.73688 19.1625 8.19936 19.1625 8.76986C19.1625 9.34036 18.7 9.80284 18.1295 9.80284H15.4062C13.3316 9.80284 11.6499 8.12109 11.6499 6.04655V1.49203C11.6499 0.895603 12.1334 0.412102 12.7298 0.412102C13.3262 0.412102 13.8098 0.895603 13.8098 1.49203V5.80711Z" fill="white"/>
<path d="M22.7111 5.97143C22.3121 5.97143 22.0082 6.34508 22.1861 6.7022C22.3711 7.07351 22.6324 7.38084 22.9699 7.6242C23.5084 7.99982 24.1657 8.18764 24.942 8.18764C25.6632 8.18764 26.2637 8.0135 26.7434 7.66523C27.1534 7.36755 27.7024 7.22046 28.1399 7.47607C28.6249 7.75942 28.7757 8.40522 28.3693 8.79292C27.4929 9.62897 26.3442 10.047 24.9232 10.047C23.3957 10.047 22.1623 9.58372 21.2233 8.65717C20.2842 7.7181 19.8147 6.53487 19.8147 5.10748C19.8147 3.70514 20.2779 2.53443 21.2045 1.59536C22.131 0.643764 23.3205 0.167969 24.773 0.167969C26.1503 0.167969 27.2772 0.650025 28.1536 1.61414C29.0426 2.57825 29.4871 3.74896 29.4871 5.12627C29.4871 5.6135 29.0501 5.97143 28.5628 5.97143H22.7111ZM21.9182 4.31866H27.4399C27.3022 3.55489 26.9829 2.97892 26.4821 2.59077C25.9938 2.20262 25.4178 2.00855 24.7542 2.00855C24.0029 2.00855 23.3769 2.21514 22.876 2.62833C22.3752 3.04153 22.0559 3.60497 21.9182 4.31866Z" fill="white"/>
<path d="M38.6543 1.42633C38.6543 0.866199 39.1084 0.412127 39.6685 0.412127C40.2287 0.412127 40.6827 0.866199 40.6827 1.42633V8.78864C40.6827 9.34877 40.2287 9.80284 39.6685 9.80284C39.1084 9.80284 38.6543 9.34877 38.6543 8.78864V8.45058C37.8906 9.51486 36.795 10.047 35.3676 10.047C34.0779 10.047 32.9761 9.5712 32.0621 8.61961C31.148 7.6555 30.691 6.48479 30.691 5.10748C30.691 3.71766 31.148 2.54695 32.0621 1.59536C32.9761 0.643764 34.0779 0.167969 35.3676 0.167969C36.795 0.167969 37.8906 0.693848 38.6543 1.74561V1.42633ZM33.5646 7.26735C34.128 7.83079 34.8355 8.11251 35.6869 8.11251C36.5383 8.11251 37.2457 7.83079 37.8092 7.26735C38.3726 6.69138 38.6543 5.97143 38.6543 5.10748C38.6543 4.24354 38.3726 3.52984 37.8092 2.9664C37.2457 2.39044 36.5383 2.10245 35.6869 2.10245C34.8355 2.10245 34.128 2.39044 33.5646 2.9664C33.0011 3.52984 32.7194 4.24354 32.7194 5.10748C32.7194 5.97143 33.0011 6.69138 33.5646 7.26735Z" fill="white"/>
<path d="M45.0754 1.98977C45.4494 1.14143 46.0626 0.602108 46.9151 0.371813C47.482 0.21866 47.9677 0.719153 47.9677 1.3064C47.9677 1.92059 47.4347 2.38181 46.845 2.55333C46.5197 2.64793 46.2178 2.79814 45.9393 3.00396C45.3634 3.41716 45.0754 4.10581 45.0754 5.06992V8.78864C45.0754 9.34877 44.6213 9.80284 44.0612 9.80284C43.5011 9.80284 43.047 9.34877 43.047 8.78864V1.42632C43.047 0.866199 43.5011 0.412127 44.0612 0.412127C44.6213 0.412127 45.0754 0.866199 45.0754 1.42633V1.98977Z" fill="white"/>
<path d="M54.4059 0.167969C55.4827 0.167969 56.3529 0.512295 57.0166 1.20095C57.6802 1.8896 58.012 2.83493 58.012 4.03694V8.78865C58.012 9.34877 57.5579 9.80284 56.9978 9.80284C56.4377 9.80284 55.9836 9.34877 55.9836 8.78865V4.24354C55.9836 3.54236 55.7958 3.00396 55.4201 2.62833C55.0445 2.25271 54.5312 2.06489 53.8801 2.06489C53.1664 2.06489 52.5904 2.29027 52.1522 2.74102C51.7139 3.17926 51.4948 3.85539 51.4948 4.76942V8.78864C51.4948 9.34877 51.0408 9.80284 50.4806 9.80284C49.9205 9.80284 49.4664 9.34877 49.4664 8.78864V1.42632C49.4664 0.866199 49.9205 0.412127 50.4806 0.412127C51.0408 0.412127 51.4948 0.866199 51.4948 1.42633V1.61414C52.1083 0.650025 53.0787 0.167969 54.4059 0.167969Z" fill="white"/>
</svg>
